<svg xmlns="http://www.w3.org/2000/svg" xmlns:xlink="http://www.w3.org/1999/xlink" contentStyleType="text/css" data-diagram-type="DESCRIPTION" height="1078px" preserveAspectRatio="none" style="width:2038px;height:1078px;background:#FFFFFF;" version="1.1" viewBox="0 0 2038 1078" width="2038px" zoomAndPan="magnify"><defs/><g><!--cluster Volunteer Management System--><g class="cluster" data-entity="Volunteer Management System" data-source-line="14" data-uid="ent0004" id="cluster_Volunteer Management System"><rect fill="none" height="942.54" rx="2.5" ry="2.5" style="stroke:#181818;stroke-width:1;" width="1839" x="193" y="7"/><text fill="#000000" font-family="sans-serif" font-size="14" font-weight="bold" lengthAdjust="spacing" textLength="248.8896" x="988.0552" y="21.9951">Volunteer Management System</text></g><!--cluster Supervisor Functions--><g class="cluster" data-entity="Supervisor Functions" data-source-line="15" data-uid="ent0005" id="cluster_Supervisor Functions"><rect fill="none" height="252.83" rx="2.5" ry="2.5" style="stroke:#181818;stroke-width:1;" width="1029" x="217" y="204.11"/><text fill="#000000" font-family="sans-serif" font-size="14" font-weight="bold" lengthAdjust="spacing" textLength="167.3301" x="647.835" y="219.1051">Supervisor Functions</text></g><!--cluster Volunteer Functions--><g class="cluster" data-entity="Volunteer Functions" data-source-line="24" data-uid="ent0012" id="cluster_Volunteer Functions"><rect fill="none" height="875.54" rx="2.5" ry="2.5" style="stroke:#181818;stroke-width:1;" width="738" x="1270" y="50"/><text fill="#000000" font-family="sans-serif" font-size="14" font-weight="bold" lengthAdjust="spacing" textLength="159.8516" x="1559.0742" y="64.9951">Volunteer Functions</text></g><!--entity PUB--><g class="entity" data-entity="PUB" data-source-line="16" data-uid="ent0006" id="entity_PUB"><ellipse cx="966.9972" cy="276.6054" fill="#FFFFFF" rx="70.3272" ry="16.4654" style="stroke:#000000;stroke-width:0.5;"/><text fill="#000000" font-family="sans-serif" font-size="14" lengthAdjust="spacing" textLength="107.2012" x="913.3966" y="281.2539">Publish Activity</text></g><!--entity FDB--><g class="entity" data-entity="FDB" data-source-line="17" data-uid="ent0007" id="entity_FDB"><ellipse cx="1151.0038" cy="276.6068" fill="#FFFFFF" rx="78.5838" ry="18.1168" style="stroke:#000000;stroke-width:0.5;"/><text fill="#000000" font-family="sans-serif" font-size="14" lengthAdjust="spacing" textLength="127.3262" x="1087.3407" y="281.2552">Receive Feedback</text></g><!--entity LOC_ACC--><g class="entity" data-entity="LOC_ACC" data-source-line="18" data-uid="ent0008" id="entity_LOC_ACC"><ellipse cx="316.9972" cy="416.8" fill="#FFFFFF" rx="81.3972" ry="24.14" style="stroke:#000000;stroke-width:0.5;"/><text fill="#000000" font-family="sans-serif" font-size="14" lengthAdjust="spacing" textLength="120.873" x="256.5607" y="416.1317">Access Volunteer</text><text fill="#000000" font-family="sans-serif" font-size="14" lengthAdjust="spacing" textLength="66.7529" x="283.6208" y="432.4285">Locations</text></g><!--entity TABS--><g class="entity" data-entity="TABS" data-source-line="19" data-uid="ent0009" id="entity_TABS"><ellipse cx="300.0006" cy="276.6056" fill="#FFFFFF" rx="67.1306" ry="25.0156" style="stroke:#000000;stroke-width:0.5;"/><text fill="#000000" font-family="sans-serif" font-size="14" lengthAdjust="spacing" textLength="94.9443" x="252.5284" y="274.6005">Keep Tabs on</text><text fill="#000000" font-family="sans-serif" font-size="14" lengthAdjust="spacing" textLength="75.5439" x="262.2286" y="290.8974">Volunteers</text></g><!--entity SUMM--><g class="entity" data-entity="SUMM" data-source-line="20" data-uid="ent0010" id="entity_SUMM"><ellipse cx="731.9961" cy="276.6125" fill="#FFFFFF" rx="129.3761" ry="37.4925" style="stroke:#000000;stroke-width:0.5;"/><text fill="#000000" font-family="sans-serif" font-size="14" lengthAdjust="spacing" textLength="179.1289" x="642.4316" y="265.075">Send Weekly Summaries,</text><text fill="#000000" font-family="sans-serif" font-size="14" lengthAdjust="spacing" textLength="108.6914" x="679.8755" y="281.3719">announcments,</text><text fill="#000000" font-family="sans-serif" font-size="14" lengthAdjust="spacing" textLength="173.0449" x="647.6987" y="297.6688">and invitations to tonder</text></g><!--entity CLUBS--><g class="entity" data-entity="CLUBS" data-source-line="21" data-uid="ent0011" id="entity_CLUBS"><ellipse cx="485.0018" cy="276.6125" fill="#FFFFFF" rx="82.7218" ry="25.6825" style="stroke:#000000;stroke-width:0.5;"/><text fill="#000000" font-family="sans-serif" font-size="14" lengthAdjust="spacing" textLength="106.9961" x="431.5038" y="272.5925">Cooperate with</text><text fill="#000000" font-family="sans-serif" font-size="14" lengthAdjust="spacing" textLength="114.5566" x="427.7235" y="288.8894">Consumer Clubs</text></g><!--entity PREF--><g class="entity" data-entity="PREF" data-source-line="25" data-uid="ent0013" id="entity_PREF"><ellipse cx="1919.0015" cy="102.9643" fill="#FFFFFF" rx="73.4715" ry="17.0943" style="stroke:#000000;stroke-width:0.5;"/><text fill="#000000" font-family="sans-serif" font-size="14" lengthAdjust="spacing" textLength="115.001" x="1861.501" y="107.6127">Add Preferences</text></g><!--entity FILTER--><g class="entity" data-entity="FILTER" data-source-line="26" data-uid="ent0014" id="entity_FILTER"><ellipse cx="1628.0004" cy="276.6121" fill="#FFFFFF" rx="69.1604" ry="16.2321" style="stroke:#000000;stroke-width:0.5;"/><text fill="#000000" font-family="sans-serif" font-size="14" lengthAdjust="spacing" textLength="104.2549" x="1575.8729" y="281.2605">Filter Activities</text></g><!--entity NOTIF--><g class="entity" data-entity="NOTIF" data-source-line="27" data-uid="ent0015" id="entity_NOTIF"><ellipse cx="1421.9965" cy="416.796" fill="#FFFFFF" rx="68.0465" ry="25.706" style="stroke:#000000;stroke-width:0.5;"/><text fill="#000000" font-family="sans-serif" font-size="14" lengthAdjust="spacing" textLength="93.3721" x="1375.3104" y="413.7823">Receive Push</text><text fill="#000000" font-family="sans-serif" font-size="14" lengthAdjust="spacing" textLength="87.623" x="1378.185" y="430.0792">Notifications</text></g><!--entity DETAILS--><g class="entity" data-entity="DETAILS" data-source-line="28" data-uid="ent0016" id="entity_DETAILS"><ellipse cx="1422.0025" cy="528.0437" fill="#FFFFFF" rx="61.6225" ry="24.0937" style="stroke:#000000;stroke-width:0.5;"/><text fill="#000000" font-family="sans-serif" font-size="14" lengthAdjust="spacing" textLength="90.583" x="1376.711" y="527.4482">View Activity</text><text fill="#000000" font-family="sans-serif" font-size="14" lengthAdjust="spacing" textLength="48.5352" x="1397.7349" y="543.7451">Details</text></g><!--entity SIGNUP--><g class="entity" data-entity="SIGNUP" data-source-line="29" data-uid="ent0017" id="entity_SIGNUP"><ellipse cx="1336.9983" cy="653.8509" fill="#FFFFFF" rx="51.3983" ry="24.7209" style="stroke:#000000;stroke-width:0.5;"/><text fill="#000000" font-family="sans-serif" font-size="14" lengthAdjust="spacing" textLength="72.625" x="1300.6858" y="652.2878">Sign Up to</text><text fill="#000000" font-family="sans-serif" font-size="14" lengthAdjust="spacing" textLength="52.6025" x="1310.6971" y="668.5846">Activity</text></g><!--entity SUGG--><g class="entity" data-entity="SUGG" data-source-line="30" data-uid="ent0018" id="entity_SUGG"><ellipse cx="1551.0039" cy="102.9628" fill="#FFFFFF" rx="77.8139" ry="17.9628" style="stroke:#000000;stroke-width:0.5;"/><text fill="#000000" font-family="sans-serif" font-size="14" lengthAdjust="spacing" textLength="125.4941" x="1488.2568" y="107.6112">Suggest Activities</text></g><!--entity COMP--><g class="entity" data-entity="COMP" data-source-line="31" data-uid="ent0019" id="entity_COMP"><ellipse cx="1361.9967" cy="102.9613" fill="#FFFFFF" rx="75.9067" ry="17.5813" style="stroke:#000000;stroke-width:0.5;"/><text fill="#000000" font-family="sans-serif" font-size="14" lengthAdjust="spacing" textLength="120.9209" x="1301.5363" y="107.6098">Write Complaints</text></g><!--entity EXPOSE--><g class="entity" data-entity="EXPOSE" data-source-line="32" data-uid="ent0020" id="entity_EXPOSE"><ellipse cx="1736.9963" cy="102.9553" fill="#FFFFFF" rx="73.2263" ry="17.0453" style="stroke:#000000;stroke-width:0.5;"/><text fill="#000000" font-family="sans-serif" font-size="14" lengthAdjust="spacing" textLength="114.3994" x="1679.7966" y="107.6037">Expose Location</text></g><!--entity POINTS--><g class="entity" data-entity="POINTS" data-source-line="33" data-uid="ent0021" id="entity_POINTS"><ellipse cx="1339.9999" cy="770.1036" fill="#FFFFFF" rx="53.8799" ry="14.5236" style="stroke:#000000;stroke-width:0.5;"/><text fill="#000000" font-family="sans-serif" font-size="14" lengthAdjust="spacing" textLength="71.9551" x="1304.0224" y="774.7521">Get Points</text></g><!--entity GIFTS--><g class="entity" data-entity="GIFTS" data-source-line="34" data-uid="ent0022" id="entity_GIFTS"><ellipse cx="1439.0003" cy="885.5814" fill="#FFFFFF" rx="77.3803" ry="23.9614" style="stroke:#000000;stroke-width:0.5;"/><text fill="#000000" font-family="sans-serif" font-size="14" lengthAdjust="spacing" textLength="115.6572" x="1381.1717" y="885.1953">Exchange Points</text><text fill="#000000" font-family="sans-serif" font-size="14" lengthAdjust="spacing" textLength="56.1504" x="1410.9251" y="901.4922">for Gifts</text></g><!--entity sup--><g class="entity" data-entity="sup" data-source-line="10" data-uid="ent0002" id="entity_sup"><ellipse cx="140.0028" cy="73.32" fill="#F1F1F1" rx="8" ry="8" style="stroke:#181818;stroke-width:0.5;"/><path d="M140.0028,81.32 L140.0028,108.32 M127.0028,89.32 L153.0028,89.32 M140.0028,108.32 L127.0028,123.32 M140.0028,108.32 L153.0028,123.32" fill="none" style="stroke:#181818;stroke-width:0.5;"/><text fill="#000000" font-family="sans-serif" font-size="14" lengthAdjust="spacing" textLength="74.8057" x="102.6" y="137.8151">Supervisor</text></g><!--entity vol--><g class="entity" data-entity="vol" data-source-line="11" data-uid="ent0003" id="entity_vol"><ellipse cx="1674.995" cy="1005.04" fill="#F1F1F1" rx="8" ry="8" style="stroke:#181818;stroke-width:0.5;"/><path d="M1674.995,1013.04 L1674.995,1040.04 M1661.995,1021.04 L1687.995,1021.04 M1674.995,1040.04 L1661.995,1055.04 M1674.995,1040.04 L1687.995,1055.04" fill="none" style="stroke:#181818;stroke-width:0.5;"/><text fill="#000000" font-family="sans-serif" font-size="14" lengthAdjust="spacing" textLength="68.25" x="1640.87" y="1069.5351">Volunteer</text></g><!--link sup to PUB--><g class="link" data-entity-1="sup" data-entity-2="PUB" data-source-line="41" data-uid="lnk23" id="link_sup_PUB"><path d="M177.78,109.56 C251.94,120.64 421.73,146.42 564,171.11 C604.11,178.08 613.54,183.6 654,188.11 C678.86,190.89 855.82,186.72 879,196.11 C912.01,209.49 936.8711,236.3815 951.9411,255.4615" fill="none" id="sup-to-PUB" style="stroke:#181818;stroke-width:1;"/><polygon fill="#181818" points="955.66,260.17,953.2206,250.628,952.5609,256.2463,946.9427,255.5866,955.66,260.17" style="stroke:#181818;stroke-width:1;"/></g><!--link sup to TABS--><g class="link" data-entity-1="sup" data-entity-2="TABS" data-source-line="42" data-uid="lnk24" id="link_sup_TABS"><path d="M174.72,141.21 C206.33,175.12 247.9285,219.7514 274.5085,248.2614" fill="none" id="sup-to-TABS" style="stroke:#181818;stroke-width:1;"/><polygon fill="#181818" points="278.6,252.65,275.3885,243.3395,275.1904,248.9928,269.537,248.7948,278.6,252.65" style="stroke:#181818;stroke-width:1;"/></g><!--link sup to SUMM--><g class="link" data-entity-1="sup" data-entity-2="SUMM" data-source-line="43" data-uid="lnk25" id="link_sup_SUMM"><path d="M177.64,108.01 C255.59,117.18 439.55,143.03 585,196.11 C617.57,208 646.5821,223.0786 673.7921,239.0086" fill="none" id="sup-to-SUMM" style="stroke:#181818;stroke-width:1;"/><polygon fill="#181818" points="678.97,242.04,673.2241,234.041,674.6551,239.5138,669.1822,240.9449,678.97,242.04" style="stroke:#181818;stroke-width:1;"/></g><!--link sup to CLUBS--><g class="link" data-entity-1="sup" data-entity-2="CLUBS" data-source-line="44" data-uid="lnk26" id="link_sup_CLUBS"><path d="M177.71,114.15 C227.24,128.4 316.01,157.01 385,196.11 C412.59,211.75 436.0832,230.7252 455.4032,247.9652" fill="none" id="sup-to-CLUBS" style="stroke:#181818;stroke-width:1;"/><polygon fill="#181818" points="459.88,251.96,455.828,242.9833,456.1494,248.631,450.5016,248.9523,459.88,251.96" style="stroke:#181818;stroke-width:1;"/></g><!--reverse link PREF to vol--><g class="link" data-entity-1="PREF" data-entity-2="vol" data-source-line="46" data-uid="lnk28" id="link_PREF_vol"><path d="M1935.1195,124.7827 C1956.7095,153.9527 1995,213.69 1995,275.61 C1995,275.61 1995,275.61 1995,886.58 C1995,1011.16 1792.29,1030.62 1709.55,1033.38" fill="none" id="PREF-backto-vol" style="stroke:#181818;stroke-width:1;"/><polygon fill="#181818" points="1931.55,119.96,1933.6891,129.5738,1934.5246,123.9789,1940.1194,124.8144,1931.55,119.96" style="stroke:#181818;stroke-width:1;"/></g><!--reverse link FILTER to vol--><g class="link" data-entity-1="FILTER" data-entity-2="vol" data-source-line="47" data-uid="lnk30" id="link_FILTER_vol"><path d="M1655.2049,295.763 C1671.3849,307.653 1687.38,322.43 1698,344.1 C1723.34,395.78 1711,415.39 1711,472.94 C1711,472.94 1711,472.94 1711,886.58 C1711,924.71 1699.45,966.84 1689.44,996.21" fill="none" id="FILTER-backto-vol" style="stroke:#181818;stroke-width:1;"/><polygon fill="#181818" points="1650.37,292.21,1655.2537,300.7627,1654.3991,295.1708,1659.991,294.3162,1650.37,292.21" style="stroke:#181818;stroke-width:1;"/></g><!--link NOTIF to vol--><g class="link" data-entity-1="NOTIF" data-entity-2="vol" data-source-line="48" data-uid="lnk31" id="link_NOTIF_vol"><path d="M1488.3,423.39 C1552.43,432.85 1640,458.35 1640,527.04 C1640,527.04 1640,527.04 1640,886.58 C1640,924.65 1649.3419,961.0948 1659.0819,990.4748" fill="none" id="NOTIF-to-vol" style="stroke:#181818;stroke-width:1;"/><polygon fill="#181818" points="1660.97,996.17,1661.9347,986.3685,1659.3966,991.424,1654.3411,988.8859,1660.97,996.17" style="stroke:#181818;stroke-width:1;"/></g><!--reverse link DETAILS to vol--><g class="link" data-entity-1="DETAILS" data-entity-2="vol" data-source-line="49" data-uid="lnk33" id="link_DETAILS_vol"><path d="M1480.9382,542.4171 C1505.7982,550.3171 1528.26,561.41 1547,582.13 C1569.08,606.54 1569,619.93 1569,652.85 C1569,652.85 1569,652.85 1569,886.58 C1569,936.48 1609.63,980.98 1640.58,1007.64" fill="none" id="DETAILS-backto-vol" style="stroke:#181818;stroke-width:1;"/><polygon fill="#181818" points="1475.22,540.6,1482.5859,547.1378,1479.9852,542.1143,1485.0088,539.5136,1475.22,540.6" style="stroke:#181818;stroke-width:1;"/></g><!--reverse link SIGNUP to vol--><g class="link" data-entity-1="SIGNUP" data-entity-2="vol" data-source-line="50" data-uid="lnk35" id="link_SIGNUP_vol"><path d="M1312.5319,681.3427 C1296.1019,700.4827 1278.26,725.31 1269,755.57 C1248.81,821.55 1237.39,887.2 1307,957.54 C1353.64,1004.67 1558.19,1024.97 1640.51,1031.33" fill="none" id="SIGNUP-backto-vol" style="stroke:#181818;stroke-width:1;"/><polygon fill="#181818" points="1316.44,676.79,1307.5428,681.0136,1313.1833,680.5839,1313.613,686.2244,1316.44,676.79" style="stroke:#181818;stroke-width:1;"/></g><!--reverse link SUGG to vol--><g class="link" data-entity-1="SUGG" data-entity-2="vol" data-source-line="51" data-uid="lnk37" id="link_SUGG_vol"><path d="M1591.1767,121.6519 C1608.9467,129.0719 1625.56,135.28 1646,141.11 C1716.41,161.2 1750.77,125.43 1808,171.11 C1847.52,202.66 1853,225.04 1853,275.61 C1853,275.61 1853,275.61 1853,886.58 C1853,960.35 1761.04,1004.07 1709.32,1022.83" fill="none" id="SUGG-backto-vol" style="stroke:#181818;stroke-width:1;"/><polygon fill="#181818" points="1585.64,119.34,1592.4038,126.499,1590.2539,121.2666,1595.4863,119.1167,1585.64,119.34" style="stroke:#181818;stroke-width:1;"/></g><!--reverse link COMP to vol--><g class="link" data-entity-1="COMP" data-entity-2="vol" data-source-line="52" data-uid="lnk39" id="link_COMP_vol"><path d="M1399.8272,121.7344 C1417.6372,129.5244 1434.85,136 1456,141.11 C1521.98,157.08 1709.45,125.8 1760,171.11 C1795.34,202.79 1782,228.15 1782,275.61 C1782,275.61 1782,275.61 1782,886.58 C1782,936.8 1740.72,981.38 1709.44,1007.96" fill="none" id="COMP-backto-vol" style="stroke:#181818;stroke-width:1;"/><polygon fill="#181818" points="1394.33,119.33,1400.9728,126.6014,1398.911,121.3337,1404.1787,119.2719,1394.33,119.33" style="stroke:#181818;stroke-width:1;"/></g><!--reverse link EXPOSE to vol--><g class="link" data-entity-1="EXPOSE" data-entity-2="vol" data-source-line="53" data-uid="lnk41" id="link_EXPOSE_vol"><path d="M1776.3933,120.8703 C1815.7633,137.9703 1870.9,162.73 1879,171.11 C1914.12,207.49 1924,225.04 1924,275.61 C1924,275.61 1924,275.61 1924,886.58 C1924,984.99 1778.04,1018.95 1709.62,1029.45" fill="none" id="EXPOSE-backto-vol" style="stroke:#181818;stroke-width:1;"/><polygon fill="#181818" points="1770.89,118.48,1777.5514,125.7343,1775.4761,120.4719,1780.7385,118.3966,1770.89,118.48" style="stroke:#181818;stroke-width:1;"/></g><!--link POINTS to vol--><g class="link" data-entity-1="POINTS" data-entity-2="vol" data-source-line="54" data-uid="lnk42" id="link_POINTS_vol"><path d="M1333.52,784.86 C1329.93,793.25 1325.83,804.32 1324,814.62 C1315.04,864.96 1304.66,915.41 1344,957.54 C1384.29,1000.7 1558.1098,1022.333 1634.5098,1029.973" fill="none" id="POINTS-to-vol" style="stroke:#181818;stroke-width:1;"/><polygon fill="#181818" points="1640.48,1030.57,1631.9227,1025.6943,1635.5048,1030.0725,1631.1267,1033.6546,1640.48,1030.57" style="stroke:#181818;stroke-width:1;"/></g><!--reverse link GIFTS to vol--><g class="link" data-entity-1="GIFTS" data-entity-2="vol" data-source-line="55" data-uid="lnk44" id="link_GIFTS_vol"><path d="M1469.1545,912.1729 C1489.6345,929.1029 1514.88,948.79 1543,966.54 C1574.74,986.58 1613.21,1005.6 1640.41,1018.25" fill="none" id="GIFTS-backto-vol" style="stroke:#181818;stroke-width:1;"/><polygon fill="#181818" points="1464.53,908.35,1468.9181,917.1673,1468.3837,911.5357,1474.0153,911.0013,1464.53,908.35" style="stroke:#181818;stroke-width:1;"/></g><!--link PUB to NOTIF--><g class="link" data-entity-1="PUB" data-entity-2="NOTIF" data-source-line="60" data-uid="lnk45" id="link_PUB_NOTIF"><path d="M996.48,292.02 C1013.27,299.67 1034.9,308.6 1055,314.1 C1146.36,339.1 1175.13,317.37 1266,344.1 C1308.32,356.55 1348.5481,375.7611 1379.4281,392.1211" fill="none" id="PUB-to-NOTIF" style="stroke:#181818;stroke-width:1;"/><polygon fill="#181818" points="1384.73,394.93,1378.6498,387.182,1380.3118,392.5892,1374.9046,394.2512,1384.73,394.93" style="stroke:#181818;stroke-width:1;"/><text fill="#000000" font-family="sans-serif" font-size="13" lengthAdjust="spacing" textLength="143.7935" x="1311" y="357.1669">published activity info</text></g><!--link NOTIF to DETAILS--><g class="link" data-entity-1="NOTIF" data-entity-2="DETAILS" data-source-line="61" data-uid="lnk46" id="link_NOTIF_DETAILS"><path d="M1422,442.86 C1422,461.13 1422,479.71 1422,497.59" fill="none" id="NOTIF-to-DETAILS" style="stroke:#181818;stroke-width:1;"/><polygon fill="#181818" points="1422,503.59,1426,494.59,1422,498.59,1418,494.59,1422,503.59" style="stroke:#181818;stroke-width:1;"/></g><!--link DETAILS to SIGNUP--><g class="link" data-entity-1="DETAILS" data-entity-2="SIGNUP" data-source-line="62" data-uid="lnk47" id="link_DETAILS_SIGNUP"><path d="M1375.29,544.12 C1357.55,552.38 1339.18,564.61 1329,582.13 C1320.81,596.24 1321.5076,608.8407 1325.7376,623.3207" fill="none" id="DETAILS-to-SIGNUP" style="stroke:#181818;stroke-width:1;"/><polygon fill="#181818" points="1327.42,629.08,1328.7359,619.3194,1326.018,624.2806,1321.0568,621.5627,1327.42,629.08" style="stroke:#181818;stroke-width:1;"/><text fill="#000000" font-family="sans-serif" font-size="13" lengthAdjust="spacing" textLength="212.8433" x="1330" y="595.1969">notification &#8594; volunteer signs up</text></g><!--link SIGNUP to sup--><g class="link" data-entity-1="SIGNUP" data-entity-2="sup" data-source-line="63" data-uid="lnk48" id="link_SIGNUP_sup"><path d="M1285.64,650.82 C1041.03,640.8 6,594.53 6,529.04 C6,275.61 6,275.61 6,275.61 C6,212.66 57.8864,162.5985 97.5264,132.7585" fill="none" id="SIGNUP-to-sup" style="stroke:#181818;stroke-width:1;"/><polygon fill="#181818" points="102.32,129.15,92.7239,131.367,98.3253,132.1571,97.5353,137.7585,102.32,129.15" style="stroke:#181818;stroke-width:1;"/><text fill="#000000" font-family="sans-serif" font-size="13" lengthAdjust="spacing" textLength="193.1021" x="7" y="421.3669">registration info to supervisor</text></g><!--link PREF to FILTER--><g class="link" data-entity-1="PREF" data-entity-2="FILTER" data-source-line="67" data-uid="lnk49" id="link_PREF_FILTER"><path d="M1892.92,119.35 C1837.12,152.26 1711.9781,226.0719 1657.6381,258.1219" fill="none" id="PREF-to-FILTER" style="stroke:#181818;stroke-width:1;"/><polygon fill="#181818" points="1652.47,261.17,1662.2542,260.0432,1656.7767,258.6299,1658.19,253.1524,1652.47,261.17" style="stroke:#181818;stroke-width:1;"/><text fill="#000000" font-family="sans-serif" font-size="13" lengthAdjust="spacing" textLength="129.7461" x="1800" y="184.1769">preferences applied</text></g><!--link FILTER to NOTIF--><g class="link" data-entity-1="FILTER" data-entity-2="NOTIF" data-source-line="68" data-uid="lnk50" id="link_FILTER_NOTIF"><path d="M1590.47,290.62 C1560.72,302.01 1518.97,320.42 1487,344.1 C1468.91,357.5 1455.6974,371.8342 1443.6374,386.9142" fill="none" id="FILTER-to-NOTIF" style="stroke:#181818;stroke-width:1;"/><polygon fill="#181818" points="1439.89,391.6,1448.635,387.0695,1443.0128,387.6952,1442.3872,382.073,1439.89,391.6" style="stroke:#181818;stroke-width:1;"/><text fill="#000000" font-family="sans-serif" font-size="13" lengthAdjust="spacing" textLength="205.5435" x="1488" y="357.1669">filtered matches &#8594; notifications</text></g><!--link SUGG to FDB--><g class="link" data-entity-1="SUGG" data-entity-2="FDB" data-source-line="71" data-uid="lnk51" id="link_SUGG_FDB"><path d="M1517.51,119.51 C1499.38,127.26 1476.39,136.03 1455,141.11 C1388.31,156.96 1194.05,120.34 1148,171.11 C1126.54,194.77 1134.0374,229.6235 1142.0474,252.6335" fill="none" id="SUGG-to-FDB" style="stroke:#181818;stroke-width:1;"/><polygon fill="#181818" points="1144.02,258.3,1144.8388,248.4852,1142.3762,253.5779,1137.2835,251.1153,1144.02,258.3" style="stroke:#181818;stroke-width:1;"/><text fill="#000000" font-family="sans-serif" font-size="13" lengthAdjust="spacing" textLength="141.3052" x="1149" y="184.1769">suggestion submitted</text></g><!--link COMP to FDB--><g class="link" data-entity-1="COMP" data-entity-2="FDB" data-source-line="72" data-uid="lnk52" id="link_COMP_FDB"><path d="M1286.85,105.83 C1185.04,110.11 1011.45,124.29 972,171.11 C967.13,176.89 966.92,182.52 972,188.11 C984.46,201.83 1037.89,189 1055,196.11 C1088.37,209.98 1115.01,235.1531 1132.31,254.0631" fill="none" id="COMP-to-FDB" style="stroke:#181818;stroke-width:1;"/><polygon fill="#181818" points="1136.36,258.49,1133.2363,249.1496,1132.985,254.8009,1127.3337,254.5496,1136.36,258.49" style="stroke:#181818;stroke-width:1;"/><text fill="#000000" font-family="sans-serif" font-size="13" lengthAdjust="spacing" textLength="134.6592" x="973" y="184.1769">complaint submitted</text></g><!--link FDB to sup--><g class="link" data-entity-1="FDB" data-entity-2="sup" data-source-line="73" data-uid="lnk53" id="link_FDB_sup"><path d="M1136.83,258.41 C1119.75,239.12 1089.04,208.88 1055,196.11 C1022.84,184.05 780.21,191.16 746,188.11 C696.29,183.68 684.4,178.25 635,171.11 C464.4,146.48 266.2897,120.3952 183.5497,109.6152" fill="none" id="FDB-to-sup" style="stroke:#181818;stroke-width:1;"/><polygon fill="#181818" points="177.6,108.84,186.0078,113.9692,182.5581,109.486,187.0414,106.0363,177.6,108.84" style="stroke:#181818;stroke-width:1;"/><text fill="#000000" font-family="sans-serif" font-size="13" lengthAdjust="spacing" textLength="212.0879" x="747" y="184.1769">feedback received by supervisor</text></g><!--link EXPOSE to LOC_ACC--><g class="link" data-entity-1="EXPOSE" data-entity-2="LOC_ACC" data-source-line="76" data-uid="lnk54" id="link_EXPOSE_LOC_ACC"><path d="M1705.08,118.62 C1687.85,126.12 1666.06,134.93 1646,141.11 C1533.95,175.63 1487.84,134.65 1388,196.11 C1316.13,240.36 1316.97,274.66 1269,344.1 C1264.02,351.31 1266.48,356.53 1259,361.1 C1186.57,405.36 620.0298,413.7652 404.5898,415.3752" fill="none" id="EXPOSE-to-LOC_ACC" style="stroke:#181818;stroke-width:1;"/><polygon fill="#181818" points="398.59,415.42,407.6196,419.3526,403.5899,415.3826,407.5599,411.3529,398.59,415.42" style="stroke:#181818;stroke-width:1;"/><text fill="#000000" font-family="sans-serif" font-size="13" lengthAdjust="spacing" textLength="151.3027" x="1389" y="281.1769">volunteer location data</text></g><!--link TABS to LOC_ACC--><g class="link" data-entity-1="TABS" data-entity-2="LOC_ACC" data-source-line="77" data-uid="lnk55" id="link_TABS_LOC_ACC"><path d="M303,301.99 C306.15,327.57 310.3178,361.4948 313.4078,386.6248" fill="none" id="TABS-to-LOC_ACC" style="stroke:#181818;stroke-width:1;"/><polygon fill="#181818" points="314.14,392.58,317.0117,383.1591,313.5298,387.6174,309.0715,384.1354,314.14,392.58" style="stroke:#181818;stroke-width:1;"/><text fill="#000000" font-family="sans-serif" font-size="13" lengthAdjust="spacing" textLength="187.5986" x="311" y="357.1669">keep-tabs uses location data</text></g><!--link SIGNUP to POINTS--><g class="link" data-entity-1="SIGNUP" data-entity-2="POINTS" data-source-line="80" data-uid="lnk56" id="link_SIGNUP_POINTS"><path d="M1334.67,678.77 C1333.66,692.48 1332.93,710 1334,725.57 C1334.69,735.62 1335.3096,740.9557 1336.6796,749.4957" fill="none" id="SIGNUP-to-POINTS" style="stroke:#181818;stroke-width:1;"/><polygon fill="#181818" points="1337.63,755.42,1340.1539,745.9,1336.838,750.4831,1332.2549,747.1672,1337.63,755.42" style="stroke:#181818;stroke-width:1;"/><text fill="#000000" font-family="sans-serif" font-size="13" lengthAdjust="spacing" textLength="166.791" x="1335" y="721.6369">volunteering earns points</text></g><!--link POINTS to GIFTS--><g class="link" data-entity-1="POINTS" data-entity-2="GIFTS" data-source-line="81" data-uid="lnk57" id="link_POINTS_GIFTS"><path d="M1335.57,784.67 C1332.18,797.68 1329.4,817.41 1338,831.62 C1348.25,848.56 1360.4401,857.8621 1378.1501,865.9321" fill="none" id="POINTS-to-GIFTS" style="stroke:#181818;stroke-width:1;"/><polygon fill="#181818" points="1383.61,868.42,1377.0788,861.0482,1379.0601,866.3467,1373.7616,868.328,1383.61,868.42" style="stroke:#181818;stroke-width:1;"/><text fill="#000000" font-family="sans-serif" font-size="13" lengthAdjust="spacing" textLength="162.043" x="1339" y="827.6869">exchange points for gifts</text></g><!--link CLUBS to GIFTS--><g class="link" data-entity-1="CLUBS" data-entity-2="GIFTS" data-source-line="82" data-uid="lnk58" id="link_CLUBS_GIFTS"><path d="M518.19,300.56 C608.2,361.48 866.46,527.48 1108,599.13 C1235.62,636.99 1282.67,579.04 1406,629.13 C1458.59,650.49 1481.32,657.46 1506,708.57 C1529.77,757.82 1529.83,782.4 1506,831.62 C1499.6,844.83 1492.9963,852.2401 1481.3363,860.6501" fill="none" id="CLUBS-to-GIFTS" style="stroke:#181818;stroke-width:1;"/><polygon fill="#181818" points="1476.47,864.16,1486.1093,862.1393,1480.5252,861.2351,1481.4295,855.651,1476.47,864.16" style="stroke:#181818;stroke-width:1;"/><text fill="#000000" font-family="sans-serif" font-size="13" lengthAdjust="spacing" textLength="205.9814" x="1109" y="595.1969">club partnerships &#8594; gift options</text></g><!--link SUMM to NOTIF--><g class="link" data-entity-1="SUMM" data-entity-2="NOTIF" data-source-line="85" data-uid="lnk59" id="link_SUMM_NOTIF"><path d="M826.58,302.56 C843.95,306.72 861.97,310.76 879,314.1 C970.66,332.04 997.16,318.54 1087,344.1 C1105.19,349.27 1107.92,355.57 1126,361.1 C1203.96,384.95 1290.8734,399.2509 1351.5234,407.4009" fill="none" id="SUMM-to-NOTIF" style="stroke:#181818;stroke-width:1;"/><polygon fill="#181818" points="1357.47,408.2,1349.0829,403.037,1352.5145,407.5341,1348.0175,410.9657,1357.47,408.2" style="stroke:#181818;stroke-width:1;"/><text fill="#000000" font-family="sans-serif" font-size="13" lengthAdjust="spacing" textLength="130.9902" x="1127" y="357.1669">sent as notifications</text></g><!--link LOC_ACC to sup--><g class="link" data-entity-1="LOC_ACC" data-entity-2="sup" data-source-line="88" data-uid="lnk60" id="link_LOC_ACC_sup"><path d="M288.89,393.85 C266.23,374.86 234.94,345.57 215,314.1 C180.06,258.97 160.0257,191.203 149.4557,147.343" fill="none" id="LOC_ACC-to-sup" style="stroke:#181818;stroke-width:1;"/><polygon fill="#181818" points="148.05,141.51,146.2699,151.1967,149.2214,146.3708,154.0472,149.3224,148.05,141.51" style="stroke:#181818;stroke-width:1;"/></g><!--SRC=[XLPBR-Cs4BxpLmnos2J06htdi83Z5umwiH7PcnuC5BH4oqGaKY2fk4RHMz7U-nFtbtI6f5xU3TONM_GtmvdlcuTkOSKlkdR0LGRMNGh1dAx0QJXevtG9cJGYTL8hPj-aghZX9LGyVUEvI0WEz3TNEHfsWDgAb5i1VpA0HsqoOIQwq0OU2xIaC_pAZQvL5ivVJz89zXTZjp1EdJQMSVg2fAw4UPSMVt8BjgxY-LTTrCe9uO_VTK66oSKwKKAgbUDIuLzdwKxWpXhIGd1JNC0AYiw93455NIhBsjZXfdFvn1KcLmhbeiyRdqTC6cvwGSrhvRcn0G9juZUR-b18Uw9qvBjqbnkATBDx7A9UH2haku2v4Da1_NlKV7g56gUfiBPBUgzMEkNnNZHOhIU_ZoUJeT6lGbImvGSBMkrLQniijkF7P0XF1Eh_AiGRyfJKPScD5FRpNc5TADGf9JhYSmPIOKeX0AeKfnKgx1qdkwUdeUE9raWNikxrsAi96jKbqZmfwaE8PhBQ-N1G_nxDdI0VippECjWOSHH6AEGeaFmocmzHSrauT1Eba14tNwwsivSVwx6fBORwh9qyoZxJp-ljyihvLodEhSfxDHLOVKL0JsVRyN9rJRJC5Uoem_PgK1p9Sl6ysro1wpmNrbs7dkmMYo7mrM03mKINLO75xoAlwwShVxC_AetVJVburEotpJgP3N4BuM2ZMqURzV9vcroxIa_OEYBYzkg8_R2GnsYoMCwtGLFVrQEFFat7mxT__uPTTCwjrQaCl2FWRjhC85x0YMu3J3F5FhQwFoAiunSBXJYwpxq94KwDp4_kdk48WL6cpshqnNTZ_zatHV_05tF_81Ggmu43exeY5rHhtMCiALybhH6DfmxIr4Ht4dNl7P2wtQDNiNkCSWL9FhWaaFyJsfT8Zo569KbNUhRXMEYpXJjk37rBbL7v2yYuuzqck0-Y-TA5YWPTA2S8WKJULQzxXl_mj3cpdNYvG5cDoALrnjimr0SJ-1AQ3kBd8LneJwW-RsAW31hMEuu9pfhVevRfw6OGthT__kl5Px55BU2oYGQZ46aRGJzAVpSDmIuLHiptfXBy0aS_WQJAyVVWOkmXgU2ETc656IbSL5qWzupgoryVAgkbeEUSLrKXHSOYOaZOGxmPNQF0wGdnb6e_14lHDll7w__GeuBGDYnM_xDBageqX3PzX4uT6oOMvMRhGoaThbj69Vm3RDgCgnwK44E-GnfDW2PCw0mEbm7bj-rGWqzGQYLnfY3VBBIBTndNfFVNPLWqPbJZZ6R05PZWRxXCHuwMASu_UsL3QliPYE8QSUOci_tAYPqwl9PA0RN6CgkyQTlFJVV6YqKpPGCCQCZcD6IPdqLNUE8KjohkKEFm3SYUP1K49nFGLQjtk-67ZNddYvbgu9xHyFkk_L1VUYt2-VvT2QshCA0V-asTSdnXA71Ay_0AauNjo1fsezB_0m00]--></g></svg>